M48
;Layer_Color=9474304
;FILE_FORMAT=2:3
INCH,LZ
;TYPE=PLATED
T1F00S00C0.025
T2F00S00C0.028
T3F00S00C0.030
T4F00S00C0.039
T5F00S00C0.041
T6F00S00C0.051
T7F00S00C0.054
T8F00S00C0.059
T9F00S00C0.073
%
T01
X0552Y0301
Y03202
T02
X01555Y0055
X0355Y01483
X037Y0144
X03895Y01255
X0413Y01255
X04705Y00775
X05325Y0106
X05855Y0146
X04085Y0172
X03815Y01655
X03465Y01835
X03395Y02015
X04235Y0317
T03
X03175Y0116
Y0126
Y0136
X04689Y0247
Y0257
Y0267
Y0277
Y0287
Y0297
Y0307
X05001
Y0297
Y0287
Y0277
Y0267
Y0257
Y0247
X00225Y01915
Y01815
Y01715
X04689Y0317
Y0327
X05001
Y0317
T04
X04015Y0149
X0475Y01545
X0485
X05045
X05145
X0533
X0543
X0538Y01645
X05095
X048
X04065Y0159
X03965
X0329Y02933
X02306
X0064Y01815
X0059Y01715
X0069
X02306Y03721
X0329
Y03524
Y0313
T05
X00982Y00855
X0098Y01195
X02248
X0225Y00855
T06
X00315Y02285
Y0258
X01103
X01241Y02285
X00965
X06635Y0323
Y0333
Y0343
T07
X06515Y0187
Y0197
Y0207
T08
X0556Y0081
Y01065
X05725Y01284
X06686Y01065
Y0081
X05985Y0224
X05725Y0241
X0215Y01605
X01024
X00534Y0386
X01936
X03604Y04035
X03605Y0362
X04731
X04924Y03615
X04925Y04035
X0473
X06051
X0605Y03615
X05985Y03366
T09
X0023Y0026
Y0051
X0024Y01085
Y01335
X00779Y0025
X01029
X01418
X01668
X02057
X02307
X02696
X02946
X03335
X03585
X03974Y00237
X04224
X04613
X04863
X05252
X05502
X05895Y0024
X06145
X0662Y0023
Y0048
X0645Y0253
Y0278
X00235Y03715
Y03965
M30
