G04*
G04 #@! TF.GenerationSoftware,Altium Limited,Altium Designer,20.0.13 (296)*
G04*
G04 Layer_Color=16711935*
%FSLAX23Y23*%
%MOIN*%
G70*
G01*
G75*
%ADD22C,0.008*%
%ADD23R,0.097X0.097*%
%ADD24C,0.097*%
%ADD25C,0.067*%
%ADD26C,0.118*%
%ADD27R,0.067X0.067*%
%ADD28C,0.067*%
%ADD29R,0.054X0.054*%
%ADD30C,0.054*%
%ADD31R,0.084X0.084*%
%ADD32C,0.084*%
%ADD33R,0.089X0.089*%
%ADD34C,0.089*%
%ADD35C,0.052*%
%ADD36R,0.059X0.059*%
%ADD37C,0.059*%
%ADD38C,0.070*%
%ADD39C,0.085*%
%ADD40R,0.097X0.097*%
%ADD41C,0.058*%
D22*
X6410Y165D02*
D03*
X420D02*
D03*
Y4030D02*
D03*
D23*
X6050Y3615D02*
D03*
X6051Y4035D02*
D03*
X4730D02*
D03*
X4731Y3620D02*
D03*
X2150Y1605D02*
D03*
X5560Y810D02*
D03*
Y1065D02*
D03*
D24*
X4924Y3615D02*
D03*
X4925Y4035D02*
D03*
X3604D02*
D03*
X3605Y3620D02*
D03*
X1936Y3860D02*
D03*
X534D02*
D03*
X1024Y1605D02*
D03*
X5985Y3366D02*
D03*
X6686Y810D02*
D03*
Y1065D02*
D03*
X5725Y1284D02*
D03*
D25*
X2306Y2933D02*
D03*
Y3721D02*
D03*
X3290D02*
D03*
Y3524D02*
D03*
Y3130D02*
D03*
Y2933D02*
D03*
D26*
X235Y3715D02*
D03*
Y3965D02*
D03*
X3335Y250D02*
D03*
X3585D02*
D03*
X2696D02*
D03*
X2946D02*
D03*
X2057D02*
D03*
X2307D02*
D03*
X1418D02*
D03*
X1668D02*
D03*
X4863Y237D02*
D03*
X4613D02*
D03*
X779Y250D02*
D03*
X1029D02*
D03*
X230Y510D02*
D03*
Y260D02*
D03*
X240Y1085D02*
D03*
Y1335D02*
D03*
X6450Y2780D02*
D03*
Y2530D02*
D03*
X3974Y237D02*
D03*
X4224D02*
D03*
X6620Y230D02*
D03*
Y480D02*
D03*
X6145Y240D02*
D03*
X5895D02*
D03*
X5502Y237D02*
D03*
X5252D02*
D03*
D27*
X4065Y1590D02*
D03*
X590Y1715D02*
D03*
X5330Y1545D02*
D03*
X5045D02*
D03*
X4750D02*
D03*
D28*
X4015Y1490D02*
D03*
X3965Y1590D02*
D03*
X640Y1815D02*
D03*
X690Y1715D02*
D03*
X5380Y1645D02*
D03*
X5430Y1545D02*
D03*
X5095Y1645D02*
D03*
X5145Y1545D02*
D03*
X4800Y1645D02*
D03*
X4850Y1545D02*
D03*
D29*
X4689Y3270D02*
D03*
D30*
Y3170D02*
D03*
Y3070D02*
D03*
Y2970D02*
D03*
Y2870D02*
D03*
Y2770D02*
D03*
Y2670D02*
D03*
Y2570D02*
D03*
Y2470D02*
D03*
X5001D02*
D03*
Y2570D02*
D03*
Y2670D02*
D03*
Y2770D02*
D03*
Y2870D02*
D03*
Y2970D02*
D03*
Y3070D02*
D03*
Y3170D02*
D03*
Y3270D02*
D03*
D31*
X6635Y3430D02*
D03*
D32*
Y3330D02*
D03*
Y3230D02*
D03*
D33*
X6515Y2070D02*
D03*
D34*
Y1970D02*
D03*
Y1870D02*
D03*
D35*
X5520Y3202D02*
D03*
Y3010D02*
D03*
D36*
X3175Y1160D02*
D03*
X225Y1715D02*
D03*
D37*
X3175Y1260D02*
D03*
Y1360D02*
D03*
X225Y1815D02*
D03*
Y1915D02*
D03*
D38*
X982Y855D02*
D03*
X2250D02*
D03*
X980Y1195D02*
D03*
X2248D02*
D03*
D39*
X315Y2580D02*
D03*
X1103D02*
D03*
X1241Y2285D02*
D03*
X965D02*
D03*
X315D02*
D03*
D40*
X5985Y2240D02*
D03*
X5725Y2410D02*
D03*
D41*
X5855Y1460D02*
D03*
X3550Y1483D02*
D03*
X4130Y1255D02*
D03*
X3895Y1255D02*
D03*
X3700Y1440D02*
D03*
X3815Y1655D02*
D03*
X1555Y550D02*
D03*
X3465Y1835D02*
D03*
X4085Y1720D02*
D03*
X4235Y3170D02*
D03*
X4705Y775D02*
D03*
X5325Y1060D02*
D03*
X3395Y2015D02*
D03*
M02*
