G04*
G04 #@! TF.GenerationSoftware,Altium Limited,Altium Designer,20.0.13 (296)*
G04*
G04 Layer_Color=65535*
%FSLAX23Y23*%
%MOIN*%
G70*
G01*
G75*
%ADD10C,0.008*%
%ADD11C,0.004*%
%ADD12C,0.006*%
%ADD13C,0.010*%
D10*
X2089Y2925D02*
G03*
X2089Y2933I0J4D01*
G01*
D02*
G03*
X2089Y2925I0J-4D01*
G01*
X5428Y2929D02*
G03*
X5612Y2929I92J67D01*
G01*
X5612Y3283D02*
G03*
X5428Y3283I-92J-66D01*
G01*
X101Y2285D02*
G03*
X109Y2285I4J0D01*
G01*
D02*
G03*
X101Y2285I-4J0D01*
G01*
X6374Y3717D02*
X6678D01*
X6207Y4123D02*
X6678D01*
X5323Y3516D02*
X5651D01*
X5323D02*
Y3714D01*
X5651D01*
Y3516D02*
Y3714D01*
X5552Y3516D02*
X5651Y3615D01*
X4995D02*
X5323D01*
X5655D02*
X5976D01*
X5324Y3936D02*
X5652D01*
X5324D02*
Y4134D01*
X5652D01*
Y3936D02*
Y4134D01*
X5553Y3936D02*
X5652Y4035D01*
X4996D02*
X5324D01*
X5656D02*
X5977D01*
X4003Y3936D02*
X4331D01*
X4003D02*
Y4134D01*
X4331D01*
Y3936D02*
Y4134D01*
X4232Y3936D02*
X4331Y4035D01*
X3675D02*
X4003D01*
X4335D02*
X4656D01*
X4004Y3521D02*
X4332D01*
X4004D02*
Y3719D01*
X4332D01*
Y3521D02*
Y3719D01*
X4233Y3521D02*
X4332Y3620D01*
X3676D02*
X4004D01*
X4336D02*
X4657D01*
X4666Y3323D02*
X4975D01*
X4715Y2417D02*
X4975D01*
X6576Y3123D02*
X6761D01*
Y3537D01*
X6635D02*
X6761D01*
X6454Y1760D02*
X6639D01*
Y2180D01*
X6515D02*
X6639D01*
X5612Y2929D02*
Y3283D01*
X5428Y2929D02*
Y3283D01*
X5977Y2050D02*
X6172D01*
X5977Y1790D02*
X6292D01*
X4069Y2110D02*
X4380D01*
X4185Y1850D02*
X4380D01*
X5965Y1325D02*
X6276D01*
X5965Y1585D02*
X6160D01*
X1045Y855D02*
X1360D01*
X1872D02*
X2190D01*
X1872Y761D02*
Y949D01*
X1360D02*
X1872D01*
X1360Y761D02*
Y949D01*
Y761D02*
X1872D01*
X1358Y1289D02*
X1870D01*
Y1101D02*
Y1289D01*
X1358Y1101D02*
X1870D01*
X1358D02*
Y1289D01*
X1040Y1195D02*
X1358D01*
X1870D02*
X2185D01*
X3579Y1600D02*
Y1720D01*
X3771D01*
Y1600D02*
Y1720D01*
X3579Y1600D02*
X3771D01*
X3570Y1525D02*
Y1585D01*
X1755Y1605D02*
X2076D01*
X1095D02*
X1423D01*
X1652Y1506D02*
X1751Y1605D01*
Y1506D02*
Y1704D01*
X1423D02*
X1751D01*
X1423Y1506D02*
Y1704D01*
Y1506D02*
X1751D01*
X5985Y2314D02*
Y2635D01*
Y2967D02*
Y3295D01*
X5886Y2738D02*
X5985Y2639D01*
X5886D02*
X6084D01*
Y2967D01*
X5886D02*
X6084D01*
X5886Y2639D02*
Y2967D01*
X5634Y810D02*
X5955D01*
X6287D02*
X6615D01*
X5959D02*
X6058Y909D01*
X5959Y711D02*
Y909D01*
Y711D02*
X6287D01*
Y909D01*
X5959D02*
X6287D01*
X5634Y1065D02*
X5955D01*
X6287D02*
X6615D01*
X5959D02*
X6058Y1164D01*
X5959Y966D02*
Y1164D01*
Y966D02*
X6287D01*
Y1164D01*
X5959D02*
X6287D01*
X5725Y2015D02*
Y2336D01*
Y1355D02*
Y1683D01*
Y2011D02*
X5824Y1912D01*
X5626Y2011D02*
X5824D01*
X5626Y1683D02*
Y2011D01*
Y1683D02*
X5824D01*
Y2011D01*
D11*
X2111Y2528D02*
Y4126D01*
X3485D01*
Y2528D02*
Y4126D01*
X2111Y2528D02*
X3485D01*
X1935Y3608D02*
X1936Y3760D01*
X534Y3608D02*
X1935D01*
X534D02*
Y3760D01*
X1935Y4112D02*
X1936Y3960D01*
X535Y4112D02*
X1935D01*
X534Y3960D02*
X535Y4112D01*
X85Y3565D02*
Y4115D01*
X385D01*
Y3565D02*
Y4115D01*
X85Y3565D02*
X385D01*
X3129Y1118D02*
Y1402D01*
X3221D01*
Y1118D02*
Y1402D01*
X3129Y1118D02*
X3221D01*
X179Y1673D02*
Y1957D01*
X271D01*
Y1673D02*
Y1957D01*
X179Y1673D02*
X271D01*
X3735Y100D02*
Y400D01*
X3185D02*
X3735D01*
X3185Y100D02*
Y400D01*
Y100D02*
X3735D01*
X3096D02*
Y400D01*
X2546D02*
X3096D01*
X2546Y100D02*
Y400D01*
Y100D02*
X3096D01*
X2457D02*
Y400D01*
X1907D02*
X2457D01*
X1907Y100D02*
Y400D01*
Y100D02*
X2457D01*
X1818D02*
Y400D01*
X1268D02*
X1818D01*
X1268Y100D02*
Y400D01*
Y100D02*
X1818D01*
X4463Y87D02*
Y387D01*
Y87D02*
X5013D01*
Y387D01*
X4463D02*
X5013D01*
X1179Y100D02*
Y400D01*
X629D02*
X1179D01*
X629Y100D02*
Y400D01*
Y100D02*
X1179D01*
X80Y110D02*
X380D01*
Y660D01*
X80D02*
X380D01*
X80Y110D02*
Y660D01*
X90Y1485D02*
X390D01*
X90Y935D02*
Y1485D01*
Y935D02*
X390D01*
Y1485D01*
X6300Y2380D02*
X6600D01*
Y2930D01*
X6300D02*
X6600D01*
X6300Y2380D02*
Y2930D01*
X4374Y87D02*
Y387D01*
X3824D02*
X4374D01*
X3824Y87D02*
Y387D01*
Y87D02*
X4374D01*
X6470Y630D02*
X6770D01*
X6470Y80D02*
Y630D01*
Y80D02*
X6770D01*
Y630D01*
X5745Y90D02*
Y390D01*
Y90D02*
X6295D01*
Y390D01*
X5745D02*
X6295D01*
X5102Y87D02*
Y387D01*
Y87D02*
X5652D01*
Y387D01*
X5102D02*
X5652D01*
X211Y2183D02*
Y2683D01*
Y2183D02*
X1345D01*
Y2683D01*
X211D02*
X1345D01*
D12*
X4007Y1597D02*
X4022D01*
X633Y1708D02*
X648D01*
X5373Y1538D02*
X5388D01*
X5088D02*
X5103D01*
X4793D02*
X4808D01*
D13*
X1905Y2060D02*
X1865D01*
X1905Y2100D01*
Y2110D01*
X1895Y2120D01*
X1875D01*
X1865Y2110D01*
X1955Y2060D02*
Y2120D01*
X1925Y2090D01*
X1965D01*
X1985Y2060D02*
X2025Y2100D01*
X2045Y2110D02*
X2055Y2120D01*
X2075D01*
X2085Y2110D01*
Y2070D01*
X2075Y2060D01*
X2055D01*
X2045Y2070D01*
Y2110D01*
X2135Y2060D02*
Y2120D01*
X2105Y2090D01*
X2145D01*
X2165Y2060D02*
X2205Y2100D01*
X2265Y2060D02*
X2225D01*
X2265Y2100D01*
Y2110D01*
X2255Y2120D01*
X2235D01*
X2225Y2110D01*
X2285D02*
X2295Y2120D01*
X2315D01*
X2325Y2110D01*
Y2070D01*
X2315Y2060D01*
X2295D01*
X2285Y2070D01*
Y2110D01*
X2385Y2060D02*
X2345D01*
X2385Y2100D01*
Y2110D01*
X2375Y2120D01*
X2355D01*
X2345Y2110D01*
X2405D02*
X2415Y2120D01*
X2435D01*
X2445Y2110D01*
Y2070D01*
X2435Y2060D01*
X2415D01*
X2405Y2070D01*
Y2110D01*
X1750Y2215D02*
X1740Y2225D01*
X1720D01*
X1710Y2215D01*
Y2205D01*
X1720Y2195D01*
X1740D01*
X1750Y2185D01*
Y2175D01*
X1740Y2165D01*
X1720D01*
X1710Y2175D01*
X1780Y2205D02*
X1800D01*
X1810Y2195D01*
Y2165D01*
X1780D01*
X1770Y2175D01*
X1780Y2185D01*
X1810D01*
X1830Y2165D02*
Y2205D01*
X1840D01*
X1850Y2195D01*
Y2165D01*
Y2195D01*
X1860Y2205D01*
X1870Y2195D01*
Y2165D01*
X1990Y2215D02*
X1980Y2225D01*
X1960D01*
X1950Y2215D01*
Y2205D01*
X1960Y2195D01*
X1980D01*
X1990Y2185D01*
Y2175D01*
X1980Y2165D01*
X1960D01*
X1950Y2175D01*
X2050Y2205D02*
X2020D01*
X2010Y2195D01*
Y2175D01*
X2020Y2165D01*
X2050D01*
X2100D02*
X2080D01*
X2070Y2175D01*
Y2195D01*
X2080Y2205D01*
X2100D01*
X2110Y2195D01*
Y2185D01*
X2070D01*
X2130Y2205D02*
X2150Y2165D01*
X2170Y2205D01*
X2220Y2165D02*
X2200D01*
X2190Y2175D01*
Y2195D01*
X2200Y2205D01*
X2220D01*
X2230Y2195D01*
Y2185D01*
X2190D01*
X2250Y2165D02*
Y2205D01*
X2280D01*
X2290Y2195D01*
Y2165D01*
X2340D02*
X2320D01*
X2310Y2175D01*
Y2195D01*
X2320Y2205D01*
X2340D01*
X2350Y2195D01*
Y2185D01*
X2310D01*
X2370Y2165D02*
X2390D01*
X2380D01*
Y2225D01*
X2370D01*
X2420Y2165D02*
X2450D01*
X2460Y2175D01*
X2450Y2185D01*
X2430D01*
X2420Y2195D01*
X2430Y2205D01*
X2460D01*
X2135Y2475D02*
X2175D01*
X2155D01*
Y2415D01*
X2195D02*
X2215D01*
X2205D01*
Y2475D01*
X2195Y2465D01*
X69Y2754D02*
Y2814D01*
X99D01*
X109Y2804D01*
Y2784D01*
X99Y2774D01*
X69D01*
X89D02*
X109Y2754D01*
X129Y2814D02*
Y2754D01*
X169D01*
X189D02*
X209D01*
X199D01*
Y2814D01*
X189Y2804D01*
X4770Y1988D02*
Y2048D01*
X4800D01*
X4810Y2038D01*
Y2018D01*
X4800Y2008D01*
X4770D01*
X4790D02*
X4810Y1988D01*
X4830D02*
X4850D01*
X4840D01*
Y2048D01*
X4830Y2038D01*
X4920Y2048D02*
X4900Y2038D01*
X4880Y2018D01*
Y1998D01*
X4890Y1988D01*
X4910D01*
X4920Y1998D01*
Y2008D01*
X4910Y2018D01*
X4880D01*
X4965Y1990D02*
Y2050D01*
X4995D01*
X5005Y2040D01*
Y2020D01*
X4995Y2010D01*
X4965D01*
X4985D02*
X5005Y1990D01*
X5025D02*
X5045D01*
X5035D01*
Y2050D01*
X5025Y2040D01*
X5115Y2050D02*
X5075D01*
Y2020D01*
X5095Y2030D01*
X5105D01*
X5115Y2020D01*
Y2000D01*
X5105Y1990D01*
X5085D01*
X5075Y2000D01*
X5155Y1991D02*
Y2051D01*
X5185D01*
X5195Y2041D01*
Y2021D01*
X5185Y2011D01*
X5155D01*
X5175D02*
X5195Y1991D01*
X5215D02*
X5235D01*
X5225D01*
Y2051D01*
X5215Y2041D01*
X5295Y1991D02*
Y2051D01*
X5265Y2021D01*
X5305D01*
X4205Y1373D02*
Y1433D01*
X4235D01*
X4245Y1423D01*
Y1403D01*
X4235Y1393D01*
X4205D01*
X4225D02*
X4245Y1373D01*
X4265D02*
X4285D01*
X4275D01*
Y1433D01*
X4265Y1423D01*
X4315D02*
X4325Y1433D01*
X4345D01*
X4355Y1423D01*
Y1413D01*
X4345Y1403D01*
X4335D01*
X4345D01*
X4355Y1393D01*
Y1383D01*
X4345Y1373D01*
X4325D01*
X4315Y1383D01*
X3990Y1371D02*
Y1431D01*
X4020D01*
X4030Y1421D01*
Y1401D01*
X4020Y1391D01*
X3990D01*
X4010D02*
X4030Y1371D01*
X4050D02*
X4070D01*
X4060D01*
Y1431D01*
X4050Y1421D01*
X4140Y1371D02*
X4100D01*
X4140Y1411D01*
Y1421D01*
X4130Y1431D01*
X4110D01*
X4100Y1421D01*
X392Y1885D02*
Y1945D01*
X422D01*
X432Y1935D01*
Y1915D01*
X422Y1905D01*
X392D01*
X412D02*
X432Y1885D01*
X452D02*
X472D01*
X462D01*
Y1945D01*
X452Y1935D01*
X502Y1885D02*
X522D01*
X512D01*
Y1945D01*
X502Y1935D01*
X3275Y1760D02*
Y1820D01*
X3305D01*
X3315Y1810D01*
Y1790D01*
X3305Y1780D01*
X3275D01*
X3295D02*
X3315Y1760D01*
X3335D02*
X3355D01*
X3345D01*
Y1820D01*
X3335Y1810D01*
X3385D02*
X3395Y1820D01*
X3415D01*
X3425Y1810D01*
Y1770D01*
X3415Y1760D01*
X3395D01*
X3385Y1770D01*
Y1810D01*
X3562Y2045D02*
Y2105D01*
X3592D01*
X3602Y2095D01*
Y2075D01*
X3592Y2065D01*
X3562D01*
X3582D02*
X3602Y2045D01*
X3622Y2055D02*
X3632Y2045D01*
X3652D01*
X3662Y2055D01*
Y2095D01*
X3652Y2105D01*
X3632D01*
X3622Y2095D01*
Y2085D01*
X3632Y2075D01*
X3662D01*
X3130Y1760D02*
Y1820D01*
X3160D01*
X3170Y1810D01*
Y1790D01*
X3160Y1780D01*
X3130D01*
X3150D02*
X3170Y1760D01*
X3190Y1810D02*
X3200Y1820D01*
X3220D01*
X3230Y1810D01*
Y1800D01*
X3220Y1790D01*
X3230Y1780D01*
Y1770D01*
X3220Y1760D01*
X3200D01*
X3190Y1770D01*
Y1780D01*
X3200Y1790D01*
X3190Y1800D01*
Y1810D01*
X3200Y1790D02*
X3220D01*
X2880Y1785D02*
Y1845D01*
X2910D01*
X2920Y1835D01*
Y1815D01*
X2910Y1805D01*
X2880D01*
X2900D02*
X2920Y1785D01*
X2940Y1845D02*
X2980D01*
Y1835D01*
X2940Y1795D01*
Y1785D01*
X2880Y1595D02*
Y1655D01*
X2910D01*
X2920Y1645D01*
Y1625D01*
X2910Y1615D01*
X2880D01*
X2900D02*
X2920Y1595D01*
X2980Y1655D02*
X2960Y1645D01*
X2940Y1625D01*
Y1605D01*
X2950Y1595D01*
X2970D01*
X2980Y1605D01*
Y1615D01*
X2970Y1625D01*
X2940D01*
X788Y1380D02*
Y1440D01*
X818D01*
X828Y1430D01*
Y1410D01*
X818Y1400D01*
X788D01*
X808D02*
X828Y1380D01*
X888Y1440D02*
X848D01*
Y1410D01*
X868Y1420D01*
X878D01*
X888Y1410D01*
Y1390D01*
X878Y1380D01*
X858D01*
X848Y1390D01*
X950Y994D02*
Y1054D01*
X980D01*
X990Y1044D01*
Y1024D01*
X980Y1014D01*
X950D01*
X970D02*
X990Y994D01*
X1040D02*
Y1054D01*
X1010Y1024D01*
X1050D01*
X5155Y2240D02*
Y2300D01*
X5185D01*
X5195Y2290D01*
Y2270D01*
X5185Y2260D01*
X5155D01*
X5175D02*
X5195Y2240D01*
X5215Y2290D02*
X5225Y2300D01*
X5245D01*
X5255Y2290D01*
Y2280D01*
X5245Y2270D01*
X5235D01*
X5245D01*
X5255Y2260D01*
Y2250D01*
X5245Y2240D01*
X5225D01*
X5215Y2250D01*
X4965Y2243D02*
Y2303D01*
X4995D01*
X5005Y2293D01*
Y2273D01*
X4995Y2263D01*
X4965D01*
X4985D02*
X5005Y2243D01*
X5065D02*
X5025D01*
X5065Y2283D01*
Y2293D01*
X5055Y2303D01*
X5035D01*
X5025Y2293D01*
X4770Y2240D02*
Y2300D01*
X4800D01*
X4810Y2290D01*
Y2270D01*
X4800Y2260D01*
X4770D01*
X4790D02*
X4810Y2240D01*
X4830D02*
X4850D01*
X4840D01*
Y2300D01*
X4830Y2290D01*
X4767Y1718D02*
Y1758D01*
X4757Y1768D01*
X4737D01*
X4727Y1758D01*
Y1718D01*
X4737Y1708D01*
X4757D01*
X4747Y1728D02*
X4767Y1708D01*
X4757D02*
X4767Y1718D01*
X4827Y1768D02*
X4787D01*
Y1738D01*
X4807Y1748D01*
X4817D01*
X4827Y1738D01*
Y1718D01*
X4817Y1708D01*
X4797D01*
X4787Y1718D01*
X5062D02*
Y1758D01*
X5052Y1768D01*
X5032D01*
X5022Y1758D01*
Y1718D01*
X5032Y1708D01*
X5052D01*
X5042Y1728D02*
X5062Y1708D01*
X5052D02*
X5062Y1718D01*
X5112Y1708D02*
Y1768D01*
X5082Y1738D01*
X5122D01*
X5347Y1718D02*
Y1758D01*
X5337Y1768D01*
X5317D01*
X5307Y1758D01*
Y1718D01*
X5317Y1708D01*
X5337D01*
X5327Y1728D02*
X5347Y1708D01*
X5337D02*
X5347Y1718D01*
X5367Y1758D02*
X5377Y1768D01*
X5397D01*
X5407Y1758D01*
Y1748D01*
X5397Y1738D01*
X5387D01*
X5397D01*
X5407Y1728D01*
Y1718D01*
X5397Y1708D01*
X5377D01*
X5367Y1718D01*
X3982Y1663D02*
Y1703D01*
X3972Y1713D01*
X3952D01*
X3942Y1703D01*
Y1663D01*
X3952Y1653D01*
X3972D01*
X3962Y1673D02*
X3982Y1653D01*
X3972D02*
X3982Y1663D01*
X4042Y1653D02*
X4002D01*
X4042Y1693D01*
Y1703D01*
X4032Y1713D01*
X4012D01*
X4002Y1703D01*
X605Y1895D02*
Y1935D01*
X595Y1945D01*
X575D01*
X565Y1935D01*
Y1895D01*
X575Y1885D01*
X595D01*
X585Y1905D02*
X605Y1885D01*
X595D02*
X605Y1895D01*
X625Y1885D02*
X645D01*
X635D01*
Y1945D01*
X625Y1935D01*
X6575Y3638D02*
X6595D01*
X6585D01*
Y3578D01*
X6575D01*
X6595D01*
X6665Y3628D02*
X6655Y3638D01*
X6635D01*
X6625Y3628D01*
Y3588D01*
X6635Y3578D01*
X6655D01*
X6665Y3588D01*
X6715Y3578D02*
Y3638D01*
X6685Y3608D01*
X6725D01*
X6453Y2281D02*
X6473D01*
X6463D01*
Y2221D01*
X6453D01*
X6473D01*
X6543Y2271D02*
X6533Y2281D01*
X6513D01*
X6503Y2271D01*
Y2231D01*
X6513Y2221D01*
X6533D01*
X6543Y2231D01*
X6563Y2271D02*
X6573Y2281D01*
X6593D01*
X6603Y2271D01*
Y2261D01*
X6593Y2251D01*
X6583D01*
X6593D01*
X6603Y2241D01*
Y2231D01*
X6593Y2221D01*
X6573D01*
X6563Y2231D01*
X3576Y1898D02*
X3596D01*
X3586D01*
Y1838D01*
X3576D01*
X3596D01*
X3666Y1888D02*
X3656Y1898D01*
X3636D01*
X3626Y1888D01*
Y1848D01*
X3636Y1838D01*
X3656D01*
X3666Y1848D01*
X3726Y1838D02*
X3686D01*
X3726Y1878D01*
Y1888D01*
X3716Y1898D01*
X3696D01*
X3686Y1888D01*
X4659Y3423D02*
X4678D01*
X4668D01*
Y3364D01*
X4659D01*
X4678D01*
X4748Y3413D02*
X4738Y3423D01*
X4718D01*
X4708Y3413D01*
Y3373D01*
X4718Y3364D01*
X4738D01*
X4748Y3373D01*
X4768Y3364D02*
X4788D01*
X4778D01*
Y3423D01*
X4768Y3413D01*
X65Y3490D02*
Y3430D01*
Y3460D01*
X105D01*
Y3490D01*
Y3430D01*
X125D02*
X145D01*
X135D01*
Y3490D01*
X125Y3480D01*
X215Y3490D02*
X195Y3480D01*
X175Y3460D01*
Y3440D01*
X185Y3430D01*
X205D01*
X215Y3440D01*
Y3450D01*
X205Y3460D01*
X175D01*
X5071Y518D02*
Y458D01*
Y488D01*
X5111D01*
Y518D01*
Y458D01*
X5131D02*
X5151D01*
X5141D01*
Y518D01*
X5131Y508D01*
X5221Y518D02*
X5181D01*
Y488D01*
X5201Y498D01*
X5211D01*
X5221Y488D01*
Y468D01*
X5211Y458D01*
X5191D01*
X5181Y468D01*
X5714Y521D02*
Y461D01*
Y491D01*
X5754D01*
Y521D01*
Y461D01*
X5774D02*
X5794D01*
X5784D01*
Y521D01*
X5774Y511D01*
X5854Y461D02*
Y521D01*
X5824Y491D01*
X5864D01*
X6439Y761D02*
Y701D01*
Y731D01*
X6479D01*
Y761D01*
Y701D01*
X6499D02*
X6519D01*
X6509D01*
Y761D01*
X6499Y751D01*
X6549D02*
X6559Y761D01*
X6579D01*
X6589Y751D01*
Y741D01*
X6579Y731D01*
X6569D01*
X6579D01*
X6589Y721D01*
Y711D01*
X6579Y701D01*
X6559D01*
X6549Y711D01*
X3793Y518D02*
Y458D01*
Y488D01*
X3833D01*
Y518D01*
Y458D01*
X3853D02*
X3873D01*
X3863D01*
Y518D01*
X3853Y508D01*
X3943Y458D02*
X3903D01*
X3943Y498D01*
Y508D01*
X3933Y518D01*
X3913D01*
X3903Y508D01*
X6268Y3061D02*
Y3001D01*
Y3031D01*
X6308D01*
Y3061D01*
Y3001D01*
X6328D02*
X6348D01*
X6338D01*
Y3061D01*
X6328Y3051D01*
X6378Y3001D02*
X6398D01*
X6388D01*
Y3061D01*
X6378Y3051D01*
X147Y2088D02*
Y2029D01*
Y2058D01*
X187D01*
Y2088D01*
Y2029D01*
X207D02*
X227D01*
X217D01*
Y2088D01*
X207Y2078D01*
X257D02*
X267Y2088D01*
X287D01*
X297Y2078D01*
Y2038D01*
X287Y2029D01*
X267D01*
X257Y2038D01*
Y2078D01*
X3098Y1533D02*
Y1473D01*
Y1503D01*
X3138D01*
Y1533D01*
Y1473D01*
X3158Y1483D02*
X3168Y1473D01*
X3188D01*
X3198Y1483D01*
Y1523D01*
X3188Y1533D01*
X3168D01*
X3158Y1523D01*
Y1513D01*
X3168Y1503D01*
X3198D01*
X59Y1616D02*
Y1556D01*
Y1586D01*
X99D01*
Y1616D01*
Y1556D01*
X119Y1606D02*
X129Y1616D01*
X149D01*
X159Y1606D01*
Y1596D01*
X149Y1586D01*
X159Y1576D01*
Y1566D01*
X149Y1556D01*
X129D01*
X119Y1566D01*
Y1576D01*
X129Y1586D01*
X119Y1596D01*
Y1606D01*
X129Y1586D02*
X149D01*
X49Y791D02*
Y731D01*
Y761D01*
X89D01*
Y791D01*
Y731D01*
X109Y791D02*
X149D01*
Y781D01*
X109Y741D01*
Y731D01*
X598Y531D02*
Y471D01*
Y501D01*
X638D01*
Y531D01*
Y471D01*
X698Y531D02*
X678Y521D01*
X658Y501D01*
Y481D01*
X668Y471D01*
X688D01*
X698Y481D01*
Y491D01*
X688Y501D01*
X658D01*
X4432Y518D02*
Y458D01*
Y488D01*
X4472D01*
Y518D01*
Y458D01*
X4532Y518D02*
X4492D01*
Y488D01*
X4512Y498D01*
X4522D01*
X4532Y488D01*
Y468D01*
X4522Y458D01*
X4502D01*
X4492Y468D01*
X1237Y531D02*
Y471D01*
Y501D01*
X1277D01*
Y531D01*
Y471D01*
X1327D02*
Y531D01*
X1297Y501D01*
X1337D01*
X1876Y531D02*
Y471D01*
Y501D01*
X1916D01*
Y531D01*
Y471D01*
X1936Y521D02*
X1946Y531D01*
X1966D01*
X1976Y521D01*
Y511D01*
X1966Y501D01*
X1956D01*
X1966D01*
X1976Y491D01*
Y481D01*
X1966Y471D01*
X1946D01*
X1936Y481D01*
X2515Y531D02*
Y471D01*
Y501D01*
X2555D01*
Y531D01*
Y471D01*
X2615D02*
X2575D01*
X2615Y511D01*
Y521D01*
X2605Y531D01*
X2585D01*
X2575Y521D01*
X3154Y531D02*
Y471D01*
Y501D01*
X3194D01*
Y531D01*
Y471D01*
X3214D02*
X3234D01*
X3224D01*
Y531D01*
X3214Y521D01*
X5474Y3414D02*
X5464Y3424D01*
X5444D01*
X5434Y3414D01*
Y3374D01*
X5444Y3364D01*
X5464D01*
X5474Y3374D01*
Y3394D01*
X5454D01*
X5494Y3364D02*
X5514D01*
X5504D01*
Y3424D01*
X5494Y3414D01*
X600Y3440D02*
X560D01*
Y3410D01*
X580D01*
X560D01*
Y3380D01*
X620D02*
X640D01*
X630D01*
Y3440D01*
X620Y3430D01*
X4875Y3900D02*
Y3840D01*
X4905D01*
X4915Y3850D01*
Y3890D01*
X4905Y3900D01*
X4875D01*
X4935Y3850D02*
X4945Y3840D01*
X4965D01*
X4975Y3850D01*
Y3890D01*
X4965Y3900D01*
X4945D01*
X4935Y3890D01*
Y3880D01*
X4945Y3870D01*
X4975D01*
X4885Y3475D02*
Y3415D01*
X4915D01*
X4925Y3425D01*
Y3465D01*
X4915Y3475D01*
X4885D01*
X4945Y3465D02*
X4955Y3475D01*
X4975D01*
X4985Y3465D01*
Y3455D01*
X4975Y3445D01*
X4985Y3435D01*
Y3425D01*
X4975Y3415D01*
X4955D01*
X4945Y3425D01*
Y3435D01*
X4955Y3445D01*
X4945Y3455D01*
Y3465D01*
X4955Y3445D02*
X4975D01*
X3575Y3900D02*
Y3840D01*
X3605D01*
X3615Y3850D01*
Y3890D01*
X3605Y3900D01*
X3575D01*
X3635D02*
X3675D01*
Y3890D01*
X3635Y3850D01*
Y3840D01*
X3580Y3480D02*
Y3420D01*
X3610D01*
X3620Y3430D01*
Y3470D01*
X3610Y3480D01*
X3580D01*
X3680D02*
X3660Y3470D01*
X3640Y3450D01*
Y3430D01*
X3650Y3420D01*
X3670D01*
X3680Y3430D01*
Y3440D01*
X3670Y3450D01*
X3640D01*
X5621Y2555D02*
Y2495D01*
X5651D01*
X5661Y2505D01*
Y2545D01*
X5651Y2555D01*
X5621D01*
X5721D02*
X5681D01*
Y2525D01*
X5701Y2535D01*
X5711D01*
X5721Y2525D01*
Y2505D01*
X5711Y2495D01*
X5691D01*
X5681Y2505D01*
X5515Y1269D02*
Y1209D01*
X5545D01*
X5555Y1219D01*
Y1259D01*
X5545Y1269D01*
X5515D01*
X5605Y1209D02*
Y1269D01*
X5575Y1239D01*
X5615D01*
X5515Y680D02*
Y620D01*
X5545D01*
X5555Y630D01*
Y670D01*
X5545Y680D01*
X5515D01*
X5575Y670D02*
X5585Y680D01*
X5605D01*
X5615Y670D01*
Y660D01*
X5605Y650D01*
X5595D01*
X5605D01*
X5615Y640D01*
Y630D01*
X5605Y620D01*
X5585D01*
X5575Y630D01*
X5881Y3511D02*
Y3451D01*
X5911D01*
X5921Y3461D01*
Y3501D01*
X5911Y3511D01*
X5881D01*
X5981Y3451D02*
X5941D01*
X5981Y3491D01*
Y3501D01*
X5971Y3511D01*
X5951D01*
X5941Y3501D01*
X979Y1809D02*
Y1749D01*
X1009D01*
X1019Y1759D01*
Y1799D01*
X1009Y1809D01*
X979D01*
X1039Y1749D02*
X1059D01*
X1049D01*
Y1809D01*
X1039Y1799D01*
X6270Y3346D02*
X6260Y3356D01*
X6240D01*
X6230Y3346D01*
Y3306D01*
X6240Y3296D01*
X6260D01*
X6270Y3306D01*
X6290Y3296D02*
X6310D01*
X6300D01*
Y3356D01*
X6290Y3346D01*
X6340D02*
X6350Y3356D01*
X6370D01*
X6380Y3346D01*
Y3306D01*
X6370Y3296D01*
X6350D01*
X6340Y3306D01*
Y3346D01*
X6268Y3541D02*
X6258Y3551D01*
X6238D01*
X6228Y3541D01*
Y3501D01*
X6238Y3491D01*
X6258D01*
X6268Y3501D01*
X6288D02*
X6298Y3491D01*
X6318D01*
X6328Y3501D01*
Y3541D01*
X6318Y3551D01*
X6298D01*
X6288Y3541D01*
Y3531D01*
X6298Y3521D01*
X6328D01*
X6125Y3840D02*
X6115Y3850D01*
X6095D01*
X6085Y3840D01*
Y3800D01*
X6095Y3790D01*
X6115D01*
X6125Y3800D01*
X6145Y3840D02*
X6155Y3850D01*
X6175D01*
X6185Y3840D01*
Y3830D01*
X6175Y3820D01*
X6185Y3810D01*
Y3800D01*
X6175Y3790D01*
X6155D01*
X6145Y3800D01*
Y3810D01*
X6155Y3820D01*
X6145Y3830D01*
Y3840D01*
X6155Y3820D02*
X6175D01*
X5514Y1906D02*
X5504Y1916D01*
X5484D01*
X5474Y1906D01*
Y1866D01*
X5484Y1856D01*
X5504D01*
X5514Y1866D01*
X5534Y1916D02*
X5574D01*
Y1906D01*
X5534Y1866D01*
Y1856D01*
X5944Y1690D02*
X5934Y1700D01*
X5914D01*
X5904Y1690D01*
Y1650D01*
X5914Y1640D01*
X5934D01*
X5944Y1650D01*
X6004Y1700D02*
X5984Y1690D01*
X5964Y1670D01*
Y1650D01*
X5974Y1640D01*
X5994D01*
X6004Y1650D01*
Y1660D01*
X5994Y1670D01*
X5964D01*
X5951Y2155D02*
X5941Y2165D01*
X5921D01*
X5911Y2155D01*
Y2115D01*
X5921Y2105D01*
X5941D01*
X5951Y2115D01*
X6011Y2165D02*
X5971D01*
Y2135D01*
X5991Y2145D01*
X6001D01*
X6011Y2135D01*
Y2115D01*
X6001Y2105D01*
X5981D01*
X5971Y2115D01*
X4098Y2214D02*
X4088Y2224D01*
X4068D01*
X4058Y2214D01*
Y2174D01*
X4068Y2164D01*
X4088D01*
X4098Y2174D01*
X4148Y2164D02*
Y2224D01*
X4118Y2194D01*
X4158D01*
X3909Y1982D02*
X3899Y1992D01*
X3879D01*
X3869Y1982D01*
Y1942D01*
X3879Y1932D01*
X3899D01*
X3909Y1942D01*
X3929Y1982D02*
X3939Y1992D01*
X3959D01*
X3969Y1982D01*
Y1972D01*
X3959Y1962D01*
X3949D01*
X3959D01*
X3969Y1952D01*
Y1942D01*
X3959Y1932D01*
X3939D01*
X3929Y1942D01*
X5730Y3300D02*
X5720Y3310D01*
X5700D01*
X5690Y3300D01*
Y3260D01*
X5700Y3250D01*
X5720D01*
X5730Y3260D01*
X5790Y3250D02*
X5750D01*
X5790Y3290D01*
Y3300D01*
X5780Y3310D01*
X5760D01*
X5750Y3300D01*
X5735Y3131D02*
X5725Y3141D01*
X5705D01*
X5695Y3131D01*
Y3091D01*
X5705Y3082D01*
X5725D01*
X5735Y3091D01*
X5755Y3082D02*
X5775D01*
X5765D01*
Y3141D01*
X5755Y3131D01*
M02*
