G04*
G04 #@! TF.GenerationSoftware,Altium Limited,Altium Designer,20.0.13 (296)*
G04*
G04 Layer_Color=32768*
%FSLAX23Y23*%
%MOIN*%
G70*
G01*
G75*
%ADD11C,0.004*%
%ADD71C,0.002*%
D11*
X2066Y2508D02*
Y4146D01*
X3505D01*
Y2508D02*
Y4146D01*
X2066Y2508D02*
X3505D01*
X451Y3569D02*
Y4151D01*
Y3569D02*
X2019D01*
Y4151D01*
X451D02*
X2019D01*
X46Y3526D02*
Y4154D01*
X424D01*
Y3526D02*
Y4154D01*
X46Y3526D02*
X424D01*
X3090Y1079D02*
Y1441D01*
X3260D01*
Y1079D02*
Y1441D01*
X3090Y1079D02*
X3260D01*
X140Y1634D02*
Y1996D01*
X310D01*
Y1634D02*
Y1996D01*
X140Y1634D02*
X310D01*
X3774Y61D02*
Y439D01*
X3146D02*
X3774D01*
X3146Y61D02*
Y439D01*
Y61D02*
X3774D01*
X3135D02*
Y439D01*
X2507D02*
X3135D01*
X2507Y61D02*
Y439D01*
Y61D02*
X3135D01*
X2496D02*
Y439D01*
X1868D02*
X2496D01*
X1868Y61D02*
Y439D01*
Y61D02*
X2496D01*
X1857D02*
Y439D01*
X1229D02*
X1857D01*
X1229Y61D02*
Y439D01*
Y61D02*
X1857D01*
X4424Y48D02*
Y427D01*
Y48D02*
X5052D01*
Y427D01*
X4424D02*
X5052D01*
X1218Y61D02*
Y439D01*
X590D02*
X1218D01*
X590Y61D02*
Y439D01*
Y61D02*
X1218D01*
X41Y71D02*
X419D01*
Y699D01*
X41D02*
X419D01*
X41Y71D02*
Y699D01*
X51Y1524D02*
X429D01*
X51Y896D02*
Y1524D01*
Y896D02*
X429D01*
Y1524D01*
X6261Y2341D02*
X6639D01*
Y2969D01*
X6261D02*
X6639D01*
X6261Y2341D02*
Y2969D01*
X4413Y48D02*
Y427D01*
X3785D02*
X4413D01*
X3785Y48D02*
Y427D01*
Y48D02*
X4413D01*
X6431Y669D02*
X6809D01*
X6431Y41D02*
Y669D01*
Y41D02*
X6809D01*
Y669D01*
X5706Y51D02*
Y429D01*
Y51D02*
X6334D01*
Y429D01*
X5706D02*
X6334D01*
X5063Y48D02*
Y427D01*
Y48D02*
X5691D01*
Y427D01*
X5063D02*
X5691D01*
X61Y2143D02*
Y2722D01*
Y2143D02*
X1384D01*
Y2722D01*
X61D02*
X1384D01*
D71*
X3326Y1595D02*
X3404D01*
Y1729D01*
X3326D02*
X3404D01*
X3326Y1595D02*
Y1729D01*
X3176Y1595D02*
X3254D01*
Y1729D01*
X3176D02*
X3254D01*
X3176Y1595D02*
Y1729D01*
X6188Y3694D02*
Y4146D01*
Y3694D02*
X6762D01*
Y4146D01*
X6188D02*
X6762D01*
X4870Y3502D02*
X6104D01*
X4870D02*
Y3728D01*
X6104D01*
Y3502D02*
Y3728D01*
X4871Y3922D02*
X6105D01*
X4871D02*
Y4148D01*
X6105D01*
Y3922D02*
Y4148D01*
X3550Y3922D02*
X4784D01*
X3550D02*
Y4148D01*
X4784D01*
Y3922D02*
Y4148D01*
X3551Y3507D02*
X4785D01*
X3551D02*
Y3733D01*
X4785D01*
Y3507D02*
Y3733D01*
X4650Y3332D02*
X5040D01*
Y2408D02*
Y3332D01*
X4650Y2408D02*
X5040D01*
X4650D02*
Y3332D01*
X6771Y3113D02*
Y3547D01*
X6566Y3113D02*
X6771D01*
X6566D02*
Y3547D01*
X6771D01*
X6649Y1750D02*
Y2190D01*
X6444Y1750D02*
X6649D01*
X6444D02*
Y2190D01*
X6649D01*
X6312Y1766D02*
Y2074D01*
X5902D02*
X6312D01*
X5902Y1766D02*
Y2074D01*
Y1766D02*
X6312D01*
X4049Y2134D02*
X4451D01*
Y1826D02*
Y2134D01*
X4049Y1826D02*
X4451D01*
X4049D02*
Y2134D01*
X5894Y1301D02*
X6296D01*
X5894D02*
Y1609D01*
X6296D01*
Y1301D02*
Y1609D01*
X2291Y747D02*
Y963D01*
X941D02*
X2291D01*
X941Y747D02*
Y963D01*
Y747D02*
X2291D01*
X939Y1303D02*
X2289D01*
Y1087D02*
Y1303D01*
X939Y1087D02*
X2289D01*
X939D02*
Y1303D01*
X4839Y2075D02*
Y2209D01*
X4761Y2075D02*
X4839D01*
X4761D02*
Y2209D01*
X4839D01*
X5034Y2078D02*
Y2212D01*
X4956Y2078D02*
X5034D01*
X4956D02*
Y2212D01*
X5034D01*
X5224Y2075D02*
Y2209D01*
X5146Y2075D02*
X5224D01*
X5146D02*
Y2209D01*
X5224D01*
X2871Y1564D02*
X3005D01*
Y1486D02*
Y1564D01*
X2871Y1486D02*
X3005D01*
X2871D02*
Y1564D01*
X2871Y1676D02*
X3005D01*
X2871D02*
Y1754D01*
X3005D01*
Y1676D02*
Y1754D01*
X3553Y1936D02*
X3687D01*
X3553D02*
Y2014D01*
X3687D01*
Y1936D02*
Y2014D01*
X383Y1776D02*
X517D01*
X383D02*
Y1854D01*
X517D01*
Y1776D02*
Y1854D01*
X3981Y1206D02*
Y1340D01*
X4059D01*
Y1206D02*
Y1340D01*
X3981Y1206D02*
X4059D01*
X4274Y1208D02*
Y1342D01*
X4196Y1208D02*
X4274D01*
X4196D02*
Y1342D01*
X4274D01*
X5224Y1826D02*
Y1960D01*
X5146Y1826D02*
X5224D01*
X5146D02*
Y1960D01*
X5224D01*
X5034Y1825D02*
Y1959D01*
X4956Y1825D02*
X5034D01*
X4956D02*
Y1959D01*
X5034D01*
X4839Y1823D02*
Y1957D01*
X4761Y1823D02*
X4839D01*
X4761D02*
Y1957D01*
X4839D01*
X5685Y2980D02*
Y3050D01*
Y2980D02*
X5801D01*
Y3050D01*
X5685D02*
X5801D01*
X5687Y3160D02*
Y3230D01*
Y3160D02*
X5803D01*
Y3230D01*
X5687D02*
X5803D01*
X3860Y1785D02*
X3930D01*
Y1901D01*
X3860D02*
X3930D01*
X3860Y1785D02*
Y1901D01*
X5465Y1709D02*
X5535D01*
Y1825D01*
X5465D02*
X5535D01*
X5465Y1709D02*
Y1825D01*
X6219Y3390D02*
Y3460D01*
Y3390D02*
X6335D01*
Y3460D01*
X6219D02*
X6335D01*
X6220Y3195D02*
Y3265D01*
Y3195D02*
X6336D01*
Y3265D01*
X6220D02*
X6336D01*
X3567Y1513D02*
Y1807D01*
X3783D01*
Y1513D02*
Y1807D01*
X3567Y1513D02*
X3783D01*
X2204Y1492D02*
Y1718D01*
X970D02*
X2204D01*
X970Y1492D02*
Y1718D01*
Y1492D02*
X2204D01*
X5872Y2186D02*
X6098D01*
Y3420D01*
X5872D02*
X6098D01*
X5872Y2186D02*
Y3420D01*
X5506Y697D02*
Y923D01*
Y697D02*
X6740D01*
Y923D01*
X5506D02*
X6740D01*
X5506Y952D02*
Y1178D01*
Y952D02*
X6740D01*
Y1178D01*
X5506D02*
X6740D01*
X5612Y2464D02*
X5838D01*
X5612Y1230D02*
Y2464D01*
Y1230D02*
X5838D01*
Y2464D01*
M02*
