G04*
G04 #@! TF.GenerationSoftware,Altium Limited,Altium Designer,20.0.13 (296)*
G04*
G04 Layer_Physical_Order=1*
G04 Layer_Color=255*
%FSLAX23Y23*%
%MOIN*%
G70*
G01*
G75*
%ADD42R,0.057X0.039*%
%ADD43R,0.169X0.083*%
%ADD44R,0.134X0.071*%
%ADD45R,0.150X0.073*%
%ADD46R,0.039X0.057*%
%ADD47R,0.040X0.058*%
%ADD48R,0.058X0.040*%
%ADD49R,0.026X0.060*%
%ADD50C,0.025*%
%ADD51C,0.050*%
%ADD52R,0.089X0.089*%
%ADD53C,0.089*%
%ADD54C,0.059*%
%ADD55C,0.110*%
%ADD56R,0.059X0.059*%
%ADD57C,0.059*%
%ADD58R,0.046X0.046*%
%ADD59C,0.046*%
%ADD60R,0.076X0.076*%
%ADD61C,0.076*%
%ADD62R,0.081X0.081*%
%ADD63C,0.081*%
%ADD64C,0.044*%
%ADD65R,0.051X0.051*%
%ADD66C,0.051*%
%ADD67C,0.062*%
%ADD68C,0.077*%
%ADD69R,0.089X0.089*%
%ADD70C,0.050*%
D42*
X3365Y1700D02*
D03*
Y1625D02*
D03*
X3215Y1700D02*
D03*
Y1625D02*
D03*
X4800Y2180D02*
D03*
Y2105D02*
D03*
X4995Y2182D02*
D03*
Y2108D02*
D03*
X5185Y2180D02*
D03*
Y2105D02*
D03*
X4020Y1235D02*
D03*
Y1310D02*
D03*
X4235Y1312D02*
D03*
Y1238D02*
D03*
X5185Y1930D02*
D03*
Y1855D02*
D03*
X4995Y1930D02*
D03*
Y1855D02*
D03*
X4800Y1927D02*
D03*
Y1853D02*
D03*
D43*
X6658Y3920D02*
D03*
X6292D02*
D03*
D44*
X5989Y1920D02*
D03*
X6225D02*
D03*
D45*
X4144Y1980D02*
D03*
X4356D02*
D03*
X6201Y1455D02*
D03*
X5989D02*
D03*
D46*
X2900Y1525D02*
D03*
X2975D02*
D03*
X2975Y1715D02*
D03*
X2900D02*
D03*
X3657Y1975D02*
D03*
X3583D02*
D03*
X487Y1815D02*
D03*
X413D02*
D03*
D47*
X5775Y3015D02*
D03*
X5711D02*
D03*
X5777Y3195D02*
D03*
X5713D02*
D03*
X6309Y3425D02*
D03*
X6245D02*
D03*
X6310Y3230D02*
D03*
X6246D02*
D03*
D48*
X3895Y1875D02*
D03*
Y1811D02*
D03*
X5500Y1799D02*
D03*
Y1735D02*
D03*
D49*
X3600Y1553D02*
D03*
X3650D02*
D03*
X3700D02*
D03*
X3750D02*
D03*
Y1767D02*
D03*
X3700D02*
D03*
X3650D02*
D03*
X3600D02*
D03*
D50*
X6735Y3365D02*
Y3560D01*
X6700Y3330D02*
X6735Y3365D01*
X6635Y3330D02*
X6700D01*
X6658Y3637D02*
Y3920D01*
Y3637D02*
X6735Y3560D01*
X5500Y1615D02*
Y1735D01*
X5430Y1545D02*
X5500Y1615D01*
X6246Y3328D02*
Y3424D01*
Y3231D02*
Y3328D01*
X6633D02*
X6635Y3330D01*
X6246Y3328D02*
X6633D01*
X6246Y3231D02*
X6246Y3230D01*
X6245Y3425D02*
X6246Y3424D01*
X6245Y3425D02*
Y3434D01*
X6237Y3441D02*
X6245Y3434D01*
X6229Y3441D02*
X6237D01*
X6180Y3490D02*
X6229Y3441D01*
X5930Y3490D02*
X6180D01*
X5777Y3195D02*
Y3337D01*
X5930Y3490D01*
X5775Y3015D02*
X5776Y3016D01*
Y3194D01*
X5777Y3195D01*
X5986Y1457D02*
X5989Y1455D01*
X5858Y1457D02*
X5986D01*
X5855Y1460D02*
X5858Y1457D01*
X5555Y1060D02*
X5560Y1065D01*
X5240Y1455D02*
X5330Y1545D01*
X5240Y1040D02*
X5340Y940D01*
X5565Y1070D02*
Y1195D01*
X5595Y1225D02*
Y1784D01*
X5045Y1090D02*
X5895Y240D01*
X5580Y1799D02*
X5595Y1784D01*
X5565Y1195D02*
X5595Y1225D01*
X5240Y1040D02*
Y1455D01*
X5500Y1799D02*
X5580D01*
X5340Y940D02*
X6160D01*
X5560Y1065D02*
X5565Y1070D01*
X5045Y1090D02*
Y1545D01*
X5989Y1455D02*
Y1920D01*
X5989Y1920D01*
X3550Y1486D02*
X3600Y1536D01*
X3550Y1483D02*
Y1486D01*
X3600Y1536D02*
Y1553D01*
X3635Y1430D02*
X3650Y1445D01*
X3365Y1575D02*
X3510Y1430D01*
X3635D01*
X3365Y1575D02*
Y1625D01*
X3455Y1340D02*
X3705D01*
X3750Y1385D01*
X3650Y1445D02*
Y1553D01*
X3175Y1360D02*
Y1506D01*
X2975Y1706D02*
X3175Y1506D01*
X2975Y1706D02*
Y1715D01*
X3895Y1760D02*
Y1811D01*
Y1760D02*
X4065Y1590D01*
X4318Y1980D02*
X4356D01*
X4149Y1811D02*
X4318Y1980D01*
X3895Y1811D02*
X4149D01*
X2065Y1520D02*
X2150Y1605D01*
X590Y1595D02*
X665Y1520D01*
X2065D01*
X5980Y75D02*
X6145Y240D01*
X6167D01*
X6202Y275D01*
X6563D01*
X6608Y230D02*
X6620D01*
X6563Y275D02*
X6608Y230D01*
X3974Y260D02*
X4020Y306D01*
Y1235D01*
X3974Y237D02*
Y260D01*
X3895Y1255D02*
Y1455D01*
X3960Y1520D01*
Y1585D01*
X3965Y1590D01*
X3700Y1440D02*
Y1553D01*
X3520Y1655D02*
X3815D01*
X3490Y1625D02*
X3520Y1655D01*
X4015Y1490D02*
X4017Y1487D01*
Y1312D02*
Y1487D01*
X1720Y50D02*
X5314D01*
X5502Y237D01*
X5508D01*
X1555Y215D02*
X1720Y50D01*
X1555Y215D02*
Y550D01*
X4215Y3370D02*
X4901D01*
X5001Y3270D01*
X2760Y1915D02*
X4215Y3370D01*
X225Y1915D02*
X2760D01*
X3365Y1625D02*
X3490D01*
X3215Y1580D02*
X3455Y1340D01*
X4320Y1315D02*
X4335Y1300D01*
X4235Y1312D02*
X4238Y1315D01*
X4320D01*
X4335Y1145D02*
Y1300D01*
Y1145D02*
X4705Y775D01*
X4865Y240D02*
Y935D01*
X4640Y1160D02*
Y1600D01*
X5250Y240D02*
Y675D01*
X4750Y1175D02*
X5250Y675D01*
X4750Y1175D02*
Y1545D01*
X4640Y1160D02*
X4865Y935D01*
X3542Y1758D02*
X3583Y1799D01*
X3483Y1700D02*
X3542Y1758D01*
X3465Y1835D02*
X3542Y1758D01*
X4235Y1312D02*
Y1570D01*
X4085Y1720D02*
X4235Y1570D01*
X4017Y1312D02*
X4020Y1310D01*
X3657Y1975D02*
X3660Y1977D01*
X4141D01*
X4144Y1980D01*
X2820Y1675D02*
X2848Y1648D01*
X2820Y1755D02*
X4235Y3170D01*
X2820Y1675D02*
Y1755D01*
X2900Y1715D02*
Y1724D01*
X4446Y3270D02*
X4689D01*
X2900Y1724D02*
X4446Y3270D01*
X4350Y2970D02*
X4689D01*
X3395Y2015D02*
X4350Y2970D01*
X2848Y1648D02*
X2938D01*
X2975Y1525D02*
Y1610D01*
X2938Y1648D02*
X2975Y1610D01*
X3650Y1767D02*
X3700D01*
X5325Y1060D02*
X5555D01*
X6160Y940D02*
X6620Y480D01*
X4863Y237D02*
X4865Y240D01*
X4640Y1600D02*
X4700Y1660D01*
Y2265D01*
X4890Y2455D01*
Y2655D01*
X5001Y2766D01*
Y2770D01*
X4689Y3070D02*
Y3170D01*
X240Y1335D02*
X2719D01*
X2900Y1516D01*
Y1525D01*
X779Y250D02*
X785Y256D01*
Y485D01*
X982Y682D02*
Y855D01*
X785Y485D02*
X982Y682D01*
X710Y925D02*
X980Y1195D01*
X710Y740D02*
Y925D01*
X230Y260D02*
X710Y740D01*
X590Y1595D02*
Y1715D01*
X487Y1815D02*
X640D01*
X225D02*
X413D01*
X2975Y1460D02*
Y1525D01*
Y1460D02*
X3175Y1260D01*
X3215Y1580D02*
Y1625D01*
X3750Y1385D02*
Y1553D01*
X3215Y1700D02*
X3365D01*
X3483D01*
X3750Y1767D02*
Y1825D01*
X3800Y1875D02*
X3895D01*
X3750Y1825D02*
X3800Y1875D01*
X3215Y1700D02*
X3215Y1700D01*
X3583Y1799D02*
Y1975D01*
X3650Y1767D02*
Y1959D01*
X3657Y1966D01*
Y1975D01*
X4147Y1238D02*
X4235D01*
X4130Y1255D02*
X4147Y1238D01*
X3974Y237D02*
X4224D01*
X5250Y240D02*
X5252Y237D01*
X5517Y3205D02*
X5520Y3202D01*
X5415Y3205D02*
X5517D01*
X5001Y3070D02*
X5280D01*
X5415Y3205D01*
X5476Y2970D02*
X5518Y3013D01*
X5001Y2970D02*
X5476D01*
X5001Y2870D02*
X5125D01*
X5500Y2495D01*
Y1799D02*
Y2495D01*
X5185Y2180D02*
Y2486D01*
X5001Y2670D02*
X5185Y2486D01*
X4995Y2182D02*
X5004D01*
X5090Y2269D01*
X5001Y2570D02*
X5090Y2481D01*
Y2269D02*
Y2481D01*
X4800Y2180D02*
Y2269D01*
X5001Y2470D01*
X5185Y1930D02*
Y2105D01*
X4995Y1930D02*
Y2108D01*
X4800Y1927D02*
Y2105D01*
X5201Y1824D02*
X5380Y1645D01*
X5201Y1824D02*
Y1848D01*
X5194Y1855D02*
X5201Y1848D01*
X5185Y1855D02*
X5194D01*
X4995Y1745D02*
Y1855D01*
Y1745D02*
X5095Y1645D01*
X4800D02*
Y1853D01*
X6479Y1281D02*
X6686Y1074D01*
X6272Y1488D02*
X6479Y1281D01*
X5725Y1284D02*
X5728Y1281D01*
X6479D01*
X5845Y2530D02*
X6450D01*
X5725Y2410D02*
X5845Y2530D01*
X5508Y237D02*
X5670Y75D01*
X5980D01*
X6620Y230D02*
X6795Y405D01*
Y1883D01*
X6635Y2043D02*
X6795Y1883D01*
X6635Y2043D02*
Y3230D01*
X6686Y1065D02*
Y1074D01*
X6272Y1488D02*
X6515Y1730D01*
Y1870D01*
X6155Y2070D02*
X6225Y2000D01*
X5985Y2240D02*
X6155Y2070D01*
X6515D01*
X6225Y1920D02*
Y2000D01*
X5518Y3013D02*
X5709D01*
X5711Y3015D01*
X5532Y3195D02*
X5713D01*
X5525Y3202D02*
X5532Y3195D01*
X5520Y3202D02*
X5525D01*
X6135Y3140D02*
X6300D01*
X6310Y3230D02*
X6315Y3225D01*
Y3155D02*
Y3225D01*
X6300Y3140D02*
X6315Y3155D01*
X6120D02*
Y3231D01*
Y3155D02*
X6135Y3140D01*
X5985Y3366D02*
X6120Y3231D01*
X6310Y3230D02*
X6635D01*
X6309Y3425D02*
X6630D01*
X6635Y3430D01*
X6309Y3425D02*
X6310Y3426D01*
Y3530D01*
X6050Y3615D02*
X6225D01*
X6310Y3530D01*
X6051Y4035D02*
X6134D01*
X6249Y3920D01*
X6292D01*
X6050Y3615D02*
Y4034D01*
X6051Y4035D01*
X4830Y3615D02*
X4924D01*
X4736D02*
X4830D01*
X3380Y3430D02*
X4815D01*
X4830Y3445D01*
Y3615D01*
X3280Y3530D02*
X3380Y3430D01*
X4827Y4035D02*
X4925D01*
X4730D02*
X4827D01*
X3378Y3825D02*
X4813D01*
X4827Y3840D01*
Y4035D01*
X3280Y3727D02*
X3378Y3825D01*
X4731Y3620D02*
X4736Y3615D01*
D51*
X251Y3965D02*
X356Y3860D01*
X534D02*
X534Y3860D01*
X356Y3860D02*
X534D01*
X235Y3965D02*
X251D01*
X1980Y3510D02*
X2296Y3194D01*
Y2939D02*
Y3194D01*
X440Y3510D02*
X1980D01*
X235Y3715D02*
X440Y3510D01*
X2163Y3860D02*
X2296Y3727D01*
X1936Y3860D02*
X2163D01*
D52*
X6050Y3615D02*
D03*
X6051Y4035D02*
D03*
X4730D02*
D03*
X4731Y3620D02*
D03*
X2150Y1605D02*
D03*
X5560Y810D02*
D03*
Y1065D02*
D03*
D53*
X4924Y3615D02*
D03*
X4925Y4035D02*
D03*
X3604D02*
D03*
X3605Y3620D02*
D03*
X1936Y3860D02*
D03*
X534D02*
D03*
X1024Y1605D02*
D03*
X5985Y3366D02*
D03*
X6686Y810D02*
D03*
Y1065D02*
D03*
X5725Y1284D02*
D03*
D54*
X2306Y2933D02*
D03*
Y3721D02*
D03*
X3290D02*
D03*
Y3524D02*
D03*
Y3130D02*
D03*
Y2933D02*
D03*
D55*
X235Y3715D02*
D03*
Y3965D02*
D03*
X3335Y250D02*
D03*
X3585D02*
D03*
X2696D02*
D03*
X2946D02*
D03*
X2057D02*
D03*
X2307D02*
D03*
X1418D02*
D03*
X1668D02*
D03*
X4863Y237D02*
D03*
X4613D02*
D03*
X779Y250D02*
D03*
X1029D02*
D03*
X230Y510D02*
D03*
Y260D02*
D03*
X240Y1085D02*
D03*
Y1335D02*
D03*
X6450Y2780D02*
D03*
Y2530D02*
D03*
X3974Y237D02*
D03*
X4224D02*
D03*
X6620Y230D02*
D03*
Y480D02*
D03*
X6145Y240D02*
D03*
X5895D02*
D03*
X5502Y237D02*
D03*
X5252D02*
D03*
D56*
X4065Y1590D02*
D03*
X590Y1715D02*
D03*
X5330Y1545D02*
D03*
X5045D02*
D03*
X4750D02*
D03*
D57*
X4015Y1490D02*
D03*
X3965Y1590D02*
D03*
X640Y1815D02*
D03*
X690Y1715D02*
D03*
X5380Y1645D02*
D03*
X5430Y1545D02*
D03*
X5095Y1645D02*
D03*
X5145Y1545D02*
D03*
X4800Y1645D02*
D03*
X4850Y1545D02*
D03*
D58*
X4689Y3270D02*
D03*
D59*
Y3170D02*
D03*
Y3070D02*
D03*
Y2970D02*
D03*
Y2870D02*
D03*
Y2770D02*
D03*
Y2670D02*
D03*
Y2570D02*
D03*
Y2470D02*
D03*
X5001D02*
D03*
Y2570D02*
D03*
Y2670D02*
D03*
Y2770D02*
D03*
Y2870D02*
D03*
Y2970D02*
D03*
Y3070D02*
D03*
Y3170D02*
D03*
Y3270D02*
D03*
D60*
X6635Y3430D02*
D03*
D61*
Y3330D02*
D03*
Y3230D02*
D03*
D62*
X6515Y2070D02*
D03*
D63*
Y1970D02*
D03*
Y1870D02*
D03*
D64*
X5520Y3202D02*
D03*
Y3010D02*
D03*
D65*
X3175Y1160D02*
D03*
X225Y1715D02*
D03*
D66*
X3175Y1260D02*
D03*
Y1360D02*
D03*
X225Y1815D02*
D03*
Y1915D02*
D03*
D67*
X982Y855D02*
D03*
X2250D02*
D03*
X980Y1195D02*
D03*
X2248D02*
D03*
D68*
X315Y2580D02*
D03*
X1103D02*
D03*
X1241Y2285D02*
D03*
X965D02*
D03*
X315D02*
D03*
D69*
X5985Y2240D02*
D03*
X5725Y2410D02*
D03*
D70*
X5855Y1460D02*
D03*
X3550Y1483D02*
D03*
X4130Y1255D02*
D03*
X3895Y1255D02*
D03*
X3700Y1440D02*
D03*
X3815Y1655D02*
D03*
X1555Y550D02*
D03*
X3465Y1835D02*
D03*
X4085Y1720D02*
D03*
X4235Y3170D02*
D03*
X4705Y775D02*
D03*
X5325Y1060D02*
D03*
X3395Y2015D02*
D03*
M02*
