G04*
G04 #@! TF.GenerationSoftware,Altium Limited,Altium Designer,20.0.13 (296)*
G04*
G04 Layer_Color=16711935*
%FSLAX23Y23*%
%MOIN*%
G70*
G01*
G75*
%ADD10C,0.008*%
%ADD11C,0.004*%
%ADD12C,0.006*%
D10*
X5429Y2929D02*
G03*
X5612Y2929I91J67D01*
G01*
X5611Y3283D02*
G03*
X5428Y3283I-91J-66D01*
G01*
X2111Y2528D02*
Y4126D01*
X3485D01*
Y2528D02*
Y4126D01*
X2111Y2528D02*
X3485D01*
X534Y3608D02*
Y4112D01*
Y3608D02*
X1936D01*
Y4112D01*
X534D02*
X1936D01*
X85Y3565D02*
Y4115D01*
X385D01*
Y3565D02*
Y4115D01*
X85Y3565D02*
X385D01*
X5612Y2929D02*
Y3283D01*
X5428Y2929D02*
Y3283D01*
X3129Y1118D02*
Y1402D01*
X3221D01*
Y1118D02*
Y1402D01*
X3129Y1118D02*
X3221D01*
X179Y1673D02*
Y1957D01*
X271D01*
Y1673D02*
Y1957D01*
X179Y1673D02*
X271D01*
X3735Y100D02*
Y400D01*
X3185D02*
X3735D01*
X3185Y100D02*
Y400D01*
Y100D02*
X3735D01*
X3096D02*
Y400D01*
X2546D02*
X3096D01*
X2546Y100D02*
Y400D01*
Y100D02*
X3096D01*
X2457D02*
Y400D01*
X1907D02*
X2457D01*
X1907Y100D02*
Y400D01*
Y100D02*
X2457D01*
X1818D02*
Y400D01*
X1268D02*
X1818D01*
X1268Y100D02*
Y400D01*
Y100D02*
X1818D01*
X4463Y87D02*
Y387D01*
Y87D02*
X5013D01*
Y387D01*
X4463D02*
X5013D01*
X1179Y100D02*
Y400D01*
X629D02*
X1179D01*
X629Y100D02*
Y400D01*
Y100D02*
X1179D01*
X80Y110D02*
X380D01*
Y660D01*
X80D02*
X380D01*
X80Y110D02*
Y660D01*
X90Y1485D02*
X390D01*
X90Y935D02*
Y1485D01*
Y935D02*
X390D01*
Y1485D01*
X6300Y2380D02*
X6600D01*
Y2930D01*
X6300D02*
X6600D01*
X6300Y2380D02*
Y2930D01*
X4374Y87D02*
Y387D01*
X3824D02*
X4374D01*
X3824Y87D02*
Y387D01*
Y87D02*
X4374D01*
X6470Y630D02*
X6770D01*
X6470Y80D02*
Y630D01*
Y80D02*
X6770D01*
Y630D01*
X5745Y90D02*
Y390D01*
Y90D02*
X6295D01*
Y390D01*
X5745D02*
X6295D01*
X5102Y87D02*
Y387D01*
Y87D02*
X5652D01*
Y387D01*
X5102D02*
X5652D01*
X211Y2183D02*
Y2683D01*
Y2183D02*
X1345D01*
Y2683D01*
X211D02*
X1345D01*
D11*
X3340Y1623D02*
X3390D01*
Y1702D01*
X3340D02*
X3390D01*
X3340Y1623D02*
Y1702D01*
X3190Y1623D02*
X3240D01*
Y1702D01*
X3190D02*
X3240D01*
X3190Y1623D02*
Y1702D01*
X6678Y3717D02*
Y4123D01*
X6374Y3717D02*
X6678D01*
X6272Y3819D02*
X6374Y3717D01*
X6272Y3819D02*
Y4021D01*
X6374Y4123D01*
X6678D01*
X5323Y3516D02*
X5651D01*
X5323D02*
Y3714D01*
X5651D01*
Y3516D02*
Y3714D01*
X5552Y3516D02*
X5651Y3615D01*
X6050D01*
X4924D02*
X5323D01*
X5324Y3936D02*
X5652D01*
X5324D02*
Y4134D01*
X5652D01*
Y3936D02*
Y4134D01*
X5553Y3936D02*
X5652Y4035D01*
X6051D01*
X4925D02*
X5324D01*
X4003Y3936D02*
X4331D01*
X4003D02*
Y4134D01*
X4331D01*
Y3936D02*
Y4134D01*
X4232Y3936D02*
X4331Y4035D01*
X4730D01*
X3604D02*
X4003D01*
X4004Y3521D02*
X4332D01*
X4004D02*
Y3719D01*
X4332D01*
Y3521D02*
Y3719D01*
X4233Y3521D02*
X4332Y3620D01*
X4731D01*
X3605D02*
X4004D01*
X4715Y3323D02*
X4975D01*
Y2417D02*
Y3323D01*
X4715Y2417D02*
X4975D01*
X4715D02*
Y3323D01*
Y3273D02*
X4765Y3323D01*
X6761Y3123D02*
Y3537D01*
X6576Y3123D02*
X6761D01*
X6576D02*
Y3537D01*
X6761D01*
X6711D02*
X6761Y3487D01*
X6639Y1760D02*
Y2180D01*
X6454Y1760D02*
X6639D01*
X6454D02*
Y2180D01*
X6639D01*
X6589D02*
X6639Y2130D01*
X5977Y1790D02*
Y2050D01*
X6172D01*
X6237Y1985D01*
Y1855D02*
Y1985D01*
X6172Y1790D02*
X6237Y1855D01*
X5977Y1790D02*
X6172D01*
X4185Y2110D02*
X4380D01*
X4120Y2045D02*
X4185Y2110D01*
X4120Y1915D02*
Y2045D01*
Y1915D02*
X4185Y1850D01*
X4380D01*
Y2110D01*
X5965Y1325D02*
X6160D01*
X6225Y1390D01*
Y1520D01*
X6160Y1585D02*
X6225Y1520D01*
X5965Y1585D02*
X6160D01*
X5965Y1325D02*
Y1585D01*
X982Y855D02*
X1360D01*
X1872D02*
X2250D01*
X1872Y761D02*
Y949D01*
X1360D02*
X1872D01*
X1360Y761D02*
Y949D01*
Y761D02*
X1872D01*
X1358Y1289D02*
X1870D01*
Y1101D02*
Y1289D01*
X1358Y1101D02*
X1870D01*
X1358D02*
Y1289D01*
X980Y1195D02*
X1358D01*
X1870D02*
X2248D01*
X4825Y2103D02*
Y2182D01*
X4775Y2103D02*
X4825D01*
X4775D02*
Y2182D01*
X4825D01*
X5020Y2106D02*
Y2184D01*
X4970Y2106D02*
X5020D01*
X4970D02*
Y2184D01*
X5020D01*
X5210Y2103D02*
Y2182D01*
X5160Y2103D02*
X5210D01*
X5160D02*
Y2182D01*
X5210D01*
X2898Y1550D02*
X2977D01*
Y1500D02*
Y1550D01*
X2898Y1500D02*
X2977D01*
X2898D02*
Y1550D01*
X2898Y1690D02*
X2977D01*
X2898D02*
Y1740D01*
X2977D01*
Y1690D02*
Y1740D01*
X3581Y1950D02*
X3659D01*
X3581D02*
Y2000D01*
X3659D01*
Y1950D02*
Y2000D01*
X411Y1790D02*
X489D01*
X411D02*
Y1840D01*
X489D01*
Y1790D02*
Y1840D01*
X3995Y1233D02*
Y1312D01*
X4045D01*
Y1233D02*
Y1312D01*
X3995Y1233D02*
X4045D01*
X4260Y1236D02*
Y1314D01*
X4210Y1236D02*
X4260D01*
X4210D02*
Y1314D01*
X4260D01*
X5210Y1853D02*
Y1932D01*
X5160Y1853D02*
X5210D01*
X5160D02*
Y1932D01*
X5210D01*
X5020Y1853D02*
Y1932D01*
X4970Y1853D02*
X5020D01*
X4970D02*
Y1932D01*
X5020D01*
X4825Y1851D02*
Y1929D01*
X4775Y1851D02*
X4825D01*
X4775D02*
Y1929D01*
X4825D01*
X5704Y2990D02*
Y3040D01*
Y2990D02*
X5783D01*
Y3040D01*
X5704D02*
X5783D01*
X5705Y3170D02*
Y3220D01*
Y3170D02*
X5785D01*
Y3220D01*
X5705D02*
X5785D01*
X3870Y1804D02*
X3920D01*
Y1883D01*
X3870D02*
X3920D01*
X3870Y1804D02*
Y1883D01*
X5475Y1727D02*
X5525D01*
Y1806D01*
X5475D02*
X5525D01*
X5475Y1727D02*
Y1806D01*
X6237Y3400D02*
Y3450D01*
Y3400D02*
X6316D01*
Y3450D01*
X6237D02*
X6316D01*
X6239Y3205D02*
Y3255D01*
Y3205D02*
X6318D01*
Y3255D01*
X6239D02*
X6318D01*
X3579Y1583D02*
Y1737D01*
X3771D01*
Y1583D02*
Y1737D01*
X3579Y1583D02*
X3771D01*
X3579Y1633D02*
X3629Y1583D01*
X1024Y1605D02*
X1423D01*
X1751D02*
X2150D01*
X1652Y1506D02*
X1751Y1605D01*
Y1506D02*
Y1704D01*
X1423D02*
X1751D01*
X1423Y1506D02*
Y1704D01*
Y1506D02*
X1751D01*
X5985Y2967D02*
Y3366D01*
Y2240D02*
Y2639D01*
X5886Y2738D02*
X5985Y2639D01*
X5886D02*
X6084D01*
Y2967D01*
X5886D02*
X6084D01*
X5886Y2639D02*
Y2967D01*
X6287Y810D02*
X6686D01*
X5560D02*
X5959D01*
X6058Y909D01*
X5959Y711D02*
Y909D01*
Y711D02*
X6287D01*
Y909D01*
X5959D02*
X6287D01*
Y1065D02*
X6686D01*
X5560D02*
X5959D01*
X6058Y1164D01*
X5959Y966D02*
Y1164D01*
Y966D02*
X6287D01*
Y1164D01*
X5959D02*
X6287D01*
X5725Y1284D02*
Y1683D01*
Y2011D02*
Y2410D01*
Y2011D02*
X5824Y1912D01*
X5626Y2011D02*
X5824D01*
X5626Y1683D02*
Y2011D01*
Y1683D02*
X5824D01*
Y2011D01*
D12*
X3939Y1597D02*
X4091D01*
X564Y1708D02*
X716D01*
X5304Y1538D02*
X5456D01*
X5019D02*
X5171D01*
X4724D02*
X4876D01*
M02*
